<svg width="137" height="67" viewBox="0 0 137 67" fill="none" xmlns="http://www.w3.org/2000/svg">
<path d="M121.1 0.100006V45C121.1 49.1 118.8 53.4 111.3 53.4C103.8 53.4 101.5 49.2 101.5 45V5.30001L86.4 26.9V45C86.4 55.5 92.2 66.3 111.3 66.3C130.4 66.3 136.2 55.5 136.2 45V0.100006H121.1Z" fill="white"/>
<path d="M42.7 0.100006V12.6H32.9C24.2 12.6 15.3 17.4 15.3 33.2C15.3 49 24.2 53.8 32.9 53.8H36.7C36.3 55.4 36.3 56.9 36.6 58.4C37.1 61.2 38.8 63.6 41.5 65.5L42.7 66.4H28.2C14.3 66.4 0 58.7 0 33.3C0 23.1 2.3 15.8 6 10.6C1.6 8.40001 0 4.2 0 0.200005H42.7V0.100006Z" fill="white"/>
<path d="M52.9 53.1L54.4 51C58.5 45.2 63 45.7 66.2 47.9L64.7 50C60.6 55.9 56 55.4 52.9 53.1ZM57.9 59.7C53.8 65.5 49.3 65 46.1 62.8L47.6 60.7C51.7 54.9 56.2 55.4 59.4 57.6L57.9 59.7ZM44.9 62C41.7 59.8 39.7 55.7 43.7 49.9L45.2 47.8C48.4 50 50.4 54.1 46.4 59.9L44.9 62ZM50.5 40.2L52 38.1C55.2 40.3 57.2 44.4 53.2 50.2L51.7 52.3C48.5 50.1 46.4 46 50.5 40.2ZM57.3 30.5L58.8 28.4C62 30.6 64 34.7 60 40.5L58.5 42.6C55.2 40.4 53.2 36.3 57.3 30.5ZM64.1 20.8L65.6 18.7C68.8 20.9 70.8 25 66.8 30.8L65.3 32.9C62 30.7 60 26.6 64.1 20.8ZM79.7 28.6L78.2 30.7C74.1 36.5 69.6 36 66.4 33.8L67.9 31.7C72 25.8 76.5 26.4 79.7 28.6ZM72.9 16.5C75.3 13 77.9 12.2 80.2 12.6C81.4 14.6 81.5 17.3 79.1 20.8C76.7 24.3 74.1 25.1 71.8 24.7C70.6 22.7 70.5 19.9 72.9 16.5ZM71.4 40.4C67.3 46.2 62.8 45.7 59.6 43.5L61.1 41.4C65.2 35.6 69.7 36.1 72.9 38.3L71.4 40.4ZM89.2 61.3C87.2 59.2 85.6 56.6 84.6 53.8H63.9L101.5 0.0999985H99.7L83.4 23.4C81.7 25.8 79.9 25.6 78.6 24.6L95.7 0.0999985H93.9L83.5 14.9C82.2 14 81.4 12.3 83 9.9L89.9 0.0999985H88.1L81.8 9.1C80.1 11.5 78.3 11.3 77 10.3L84.2 0.0999985H82.4L69.7 18.4C68.4 17.5 67.6 15.8 69.2 13.4L78.6 0H76.7H50.9H45.9V12.5H67.9L45.2 45.1L42.2 49.3C37.4 56.1 39.8 60.9 43.6 63.5L45 64.5C46.6 65.6 48.4 66.3 50.3 66.3H96.6C93.7 65.1 91.2 63.4 89.2 61.3Z" fill="white"/>
</svg>
